# xmcd
#
# Track frame offsets: 
#        150
#        12636
#        23127
#        37708
#        58104
#        73681
#        96764
#        110522
#        131132
#        144979
#        157763
#        182900
#
# Disc length: 2668 seconds
#
# Revision: 0
# Processed by: cddbd v1.5.2PL0 Copyright (c) Steve Scherf et al.
# Submitted via: ExactAudioCopy v1.0b1
#
DISCID=9e0a6a0c
DTITLE=Benjamin Booker - Benjamin Booker
DYEAR=2014
DGENRE=Blues
TTITLE0=Violent Shiver
TTITLE1=Always Waiting
TTITLE2=Chippewa
TTITLE3=Slow Coming
TTITLE4=Wicked Waters
TTITLE5=Have You Seen My Son?
TTITLE6=Spoon Out My Eyeballs
TTITLE7=Happy Homes
TTITLE8=I Thought I Heard You Screaming
TTITLE9=Old Hearts
TTITLE10=Kids Never Grow Older
TTITLE11=By The Evening
EXTD=
EXTT0=
EXTT1=
EXTT2=
EXTT3=
EXTT4=
EXTT5=
EXTT6=
EXTT7=
EXTT8=
EXTT9=
EXTT10=
EXTT11=
PLAYORDER=
